<?xml version="1.0" encoding="UTF-8"?>
<svg version="1.1" xmlns="http://www.w3.org/2000/svg" width="164" height="38">
<path d="M0 0 C1.90652344 -0.04157227 1.90652344 -0.04157227 3.8515625 -0.08398438 C12.87347427 -0.0602425 12.87347427 -0.0602425 15.9597168 1.98828125 C18.15587251 4.55340998 19.61128966 7.31867703 20 10.6875 C20.4021875 10.19765625 20.804375 9.7078125 21.21875 9.203125 C23.47015745 7.28745375 24.58685742 7.34039525 27.5 7.4375 C28.66015625 7.46070313 28.66015625 7.46070313 29.84375 7.484375 C32 7.6875 32 7.6875 35 8.6875 C34.67 10.0075 34.34 11.3275 34 12.6875 C33.113125 12.336875 32.22625 11.98625 31.3125 11.625 C27.93796874 10.66994398 26.30313848 10.71598868 23 11.6875 C23.11430194 13.66531352 23.11430194 13.66531352 24 15.6875 C26.25213376 16.72176427 26.25213376 16.72176427 28.9375 17.25 C33.79126489 18.37439733 33.79126489 18.37439733 36 21.6875 C35.84601408 24.7672184 35.52708957 26.18890176 33.265625 28.328125 C30.5660569 29.94786586 28.99647833 30.03067846 25.875 29.9375 C25.00617187 29.92203125 24.13734375 29.9065625 23.2421875 29.890625 C21 29.6875 21 29.6875 19 28.6875 C18.9071875 30.04875 18.9071875 30.04875 18.8125 31.4375 C17.7848244 35.54820241 16.50904622 36.40915483 13 38.6875 C8.71693544 39.48662015 4.41221702 39.29069631 0.0625 39.25 C-1.68836914 39.28577148 -1.68836914 39.28577148 -3.47460938 39.32226562 C-13.02382401 39.30594218 -13.02382401 39.30594218 -16.7734375 37.02734375 C-20.97219294 32.6033315 -19.8103486 25.32139384 -19.6875 19.6875 C-19.70232422 18.41648437 -19.71714844 17.14546875 -19.73242188 15.8359375 C-19.68748976 10.81411248 -19.59673822 6.87957894 -17.33203125 2.35546875 C-11.75890845 -0.43435943 -6.13718108 -0.0715797 0 0 Z M19 15.6875 C19 18.6575 19 21.6275 19 24.6875 C23.77830905 27.60110308 26.55106131 27.88626651 32 26.6875 C32.33 25.3675 32.66 24.0475 33 22.6875 C29.12930207 20.10703472 25.45286364 18.94774443 21 17.6875 C20.34 17.0275 19.68 16.3675 19 15.6875 Z " fill="#D5DAE0" transform="translate(19,-0.6875)"/>
<path d="M0 0 C1.90652344 -0.04157227 1.90652344 -0.04157227 3.8515625 -0.08398438 C12.87347427 -0.0602425 12.87347427 -0.0602425 15.9597168 1.98828125 C18.15587251 4.55340998 19.61128966 7.31867703 20 10.6875 C20.4021875 10.19765625 20.804375 9.7078125 21.21875 9.203125 C23.47015745 7.28745375 24.58685742 7.34039525 27.5 7.4375 C28.66015625 7.46070313 28.66015625 7.46070313 29.84375 7.484375 C32 7.6875 32 7.6875 35 8.6875 C34.67 10.0075 34.34 11.3275 34 12.6875 C33.113125 12.336875 32.22625 11.98625 31.3125 11.625 C27.93796874 10.66994398 26.30313848 10.71598868 23 11.6875 C23.11430194 13.66531352 23.11430194 13.66531352 24 15.6875 C26.25213376 16.72176427 26.25213376 16.72176427 28.9375 17.25 C33.79126489 18.37439733 33.79126489 18.37439733 36 21.6875 C35.84601408 24.7672184 35.52708957 26.18890176 33.265625 28.328125 C30.5660569 29.94786586 28.99647833 30.03067846 25.875 29.9375 C25.00617187 29.92203125 24.13734375 29.9065625 23.2421875 29.890625 C21 29.6875 21 29.6875 19 28.6875 C18.9071875 30.04875 18.9071875 30.04875 18.8125 31.4375 C17.7848244 35.54820241 16.50904622 36.40915483 13 38.6875 C8.71693544 39.48662015 4.41221702 39.29069631 0.0625 39.25 C-1.68836914 39.28577148 -1.68836914 39.28577148 -3.47460938 39.32226562 C-13.02382401 39.30594218 -13.02382401 39.30594218 -16.7734375 37.02734375 C-20.97219294 32.6033315 -19.8103486 25.32139384 -19.6875 19.6875 C-19.70232422 18.41648437 -19.71714844 17.14546875 -19.73242188 15.8359375 C-19.68748976 10.81411248 -19.59673822 6.87957894 -17.33203125 2.35546875 C-11.75890845 -0.43435943 -6.13718108 -0.0715797 0 0 Z M-14.15234375 3.47265625 C-17.00992657 8.44472952 -16.68629927 13.11880608 -16.5625 18.75 C-16.57345703 19.83861328 -16.58441406 20.92722656 -16.59570312 22.04882812 C-16.7411095 27.89067064 -16.7411095 27.89067064 -14.30834961 32.99584961 C-11.48805371 35.0626746 -9.97100563 35.20242134 -6.5 35.21875 C-5.448125 35.22390625 -4.39625 35.2290625 -3.3125 35.234375 C-2.219375 35.21890625 -1.12625 35.2034375 0 35.1875 C1.093125 35.20296875 2.18625 35.2184375 3.3125 35.234375 C4.364375 35.22921875 5.41625 35.2240625 6.5 35.21875 C7.4590625 35.21423828 8.418125 35.20972656 9.40625 35.20507812 C12.80006729 34.52784802 13.9662491 33.46266449 16 30.6875 C16.81537969 26.7471823 16.60291473 22.76532224 16.5625 18.75 C16.58634766 17.66525391 16.61019531 16.58050781 16.63476562 15.46289062 C16.62609461 10.76030749 16.52132928 7.59459091 14.15234375 3.47265625 C9.46609377 0.8188567 5.29747155 0.95849205 0 1.0625 C-0.98484375 1.04316406 -1.9696875 1.02382813 -2.984375 1.00390625 C-7.40064061 1.03374588 -10.26920871 1.27365661 -14.15234375 3.47265625 Z M19 15.6875 C19 18.6575 19 21.6275 19 24.6875 C23.77830905 27.60110308 26.55106131 27.88626651 32 26.6875 C32.33 25.3675 32.66 24.0475 33 22.6875 C29.12930207 20.10703472 25.45286364 18.94774443 21 17.6875 C20.34 17.0275 19.68 16.3675 19 15.6875 Z " fill="#00000C" transform="translate(19,-0.6875)"/>
<path d="M0 0 C1.0725 0.165 2.145 0.33 3.25 0.5 C7.03028752 1.08810915 7.03028752 1.08810915 11 1 C11.33 0.67 11.66 0.34 12 0 C17.27565392 -0.45875252 17.27565392 -0.45875252 19.875 1.1875 C21.34781139 3.56036279 21.22223194 5.25913944 21 8 C20.43796875 7.67257813 19.8759375 7.34515625 19.296875 7.0078125 C16.73140036 5.88214506 15.03157723 5.7931889 12.25 5.875 C11.05117188 5.90207031 11.05117188 5.90207031 9.828125 5.9296875 C8.92320313 5.96449219 8.92320313 5.96449219 8 6 C8 6.33 8 6.66 8 7 C8.69867188 7.06058594 9.39734375 7.12117187 10.1171875 7.18359375 C11.02726562 7.26738281 11.93734375 7.35117188 12.875 7.4375 C13.77992187 7.51871094 14.68484375 7.59992187 15.6171875 7.68359375 C18 8 18 8 20 9 C20 11.94884321 19.40817852 13.57526053 17.36328125 15.703125 C13.96138721 18.47647862 12.04601826 20 7.5625 20 C5 19 5 19 4 17 C6.31 16.34 8.62 15.68 11 15 C10.195625 15.020625 9.39125 15.04125 8.5625 15.0625 C6 15 6 15 5 14 C3.00041636 13.95919217 0.99954746 13.95745644 -1 14 C-3.09678815 10.59271925 -3.4133256 7.96792579 -3 4 C-1.5 1.625 -1.5 1.625 0 0 Z " fill="#47C38B" transform="translate(10,8)"/>
<path d="M0 0 C2.47436523 -0.37231445 2.47436523 -0.37231445 5.55859375 -0.36328125 C6.66654297 -0.36263672 7.77449219 -0.36199219 8.91601562 -0.36132812 C10.65915039 -0.3371582 10.65915039 -0.3371582 12.4375 -0.3125 C13.59572266 -0.31572266 14.75394531 -0.31894531 15.94726562 -0.32226562 C24.59955495 -0.26696337 24.59955495 -0.26696337 28 2 C27.67 3.32 27.34 4.64 27 6 C27.66 6 28.32 6 29 6 C29 6.66 29 7.32 29 8 C24.125 7.125 24.125 7.125 23 6 C19.05163095 5.7367754 16.39620731 5.91002627 13 8 C12.01 7.34 11.02 6.68 10 6 C7.45769153 5.58320703 7.45769153 5.58320703 5 6 C2.70366176 9.44450737 2.45983515 11.93812283 2 16 C0.68 16.33 -0.64 16.66 -2 17 C-2.05398987 14.72942623 -2.09278742 12.45848712 -2.125 10.1875 C-2.14820313 8.92292969 -2.17140625 7.65835937 -2.1953125 6.35546875 C-2 3 -2 3 0 0 Z " fill="#FAFAFB" transform="translate(5,3)"/>
<path d="M0 0 C0.66 0.33 1.32 0.66 2 1 C1.98428955 1.7113208 1.9685791 2.4226416 1.95239258 3.15551758 C1.89008085 6.37443104 1.85102133 9.59321768 1.8125 12.8125 C1.78736328 13.93205078 1.76222656 15.05160156 1.73632812 16.20507812 C1.72666016 17.27822266 1.71699219 18.35136719 1.70703125 19.45703125 C1.6913208 20.44678955 1.67561035 21.43654785 1.65942383 22.45629883 C1.81564169 24.9992591 1.81564169 24.9992591 3.1784668 26.8215332 C5.67792578 28.43859372 7.47149696 28.38809785 10.4375 28.3984375 C11.49710938 28.40230469 12.55671875 28.40617187 13.6484375 28.41015625 C14.75445312 28.39855469 15.86046875 28.38695313 17 28.375 C18.10601563 28.38660156 19.21203125 28.39820312 20.3515625 28.41015625 C21.41117188 28.40628906 22.47078125 28.40242188 23.5625 28.3984375 C24.53316406 28.39505371 25.50382812 28.39166992 26.50390625 28.38818359 C29.00137477 28.17143909 29.00137477 28.17143909 30.8215332 26.83520508 C32.49042151 24.23627544 32.33975215 22.31039088 32.29296875 19.23828125 C32.28330078 18.12001953 32.27363281 17.00175781 32.26367188 15.84960938 C32.23853516 14.68236328 32.21339844 13.51511719 32.1875 12.3125 C32.17396484 11.13365234 32.16042969 9.95480469 32.14648438 8.74023438 C32.11109326 5.82636589 32.06171809 2.91341055 32 0 C32.66 0 33.32 0 34 0 C34.14536813 4.39548491 34.23409948 8.79035087 34.3125 13.1875 C34.35439453 14.43337891 34.39628906 15.67925781 34.43945312 16.96289062 C34.55992966 25.95044022 34.55992966 25.95044022 32.2265625 30.32421875 C27.24161604 32.91325269 22.59722445 32.72448576 17.0625 32.625 C15.99064453 32.64433594 14.91878906 32.66367187 13.81445312 32.68359375 C5.06449981 32.62941447 5.06449981 32.62941447 1.2734375 30.25390625 C-2.27409944 25.17641782 -1.67927617 20.34328298 -1.4375 14.3125 C-1.41880859 13.15943359 -1.40011719 12.00636719 -1.38085938 10.81835938 C-1.1980907 2.39618141 -1.1980907 2.39618141 0 0 Z " fill="#1C1F37" transform="translate(2,5)"/>
<path d="M0 0 C1.16015625 0.02320313 1.16015625 0.02320313 2.34375 0.046875 C4.5 0.25 4.5 0.25 7.5 1.25 C7.17 2.57 6.84 3.89 6.5 5.25 C5.613125 4.899375 4.72625 4.54875 3.8125 4.1875 C0.43796874 3.23244398 -1.19686152 3.27848868 -4.5 4.25 C-4.38569806 6.22781352 -4.38569806 6.22781352 -3.5 8.25 C-1.24786624 9.28426427 -1.24786624 9.28426427 1.4375 9.8125 C6.29126489 10.93689733 6.29126489 10.93689733 8.5 14.25 C8.34601408 17.3297184 8.02708957 18.75140176 5.765625 20.890625 C3.0660569 22.51036586 1.49647833 22.59317846 -1.625 22.5 C-2.49382813 22.48453125 -3.36265625 22.4690625 -4.2578125 22.453125 C-6.5 22.25 -6.5 22.25 -8.5 21.25 C-8.17 19.93 -7.84 18.61 -7.5 17.25 C-6.819375 17.58 -6.13875 17.91 -5.4375 18.25 C-1.99159762 19.42307315 0.88397422 19.39180493 4.5 19.25 C4.17 17.6 3.84 15.95 3.5 14.25 C2.80132812 14.06824219 2.10265625 13.88648438 1.3828125 13.69921875 C0.47273438 13.44785156 -0.43734375 13.19648438 -1.375 12.9375 C-2.27992187 12.69386719 -3.18484375 12.45023438 -4.1171875 12.19921875 C-6.5 11.25 -6.5 11.25 -8.5 8.25 C-8.29334837 5.49464491 -7.93072351 3.80662731 -6.23046875 1.609375 C-4.01287558 -0.13266207 -2.78814085 -0.09293803 0 0 Z " fill="#FFFFFF" transform="translate(46.5,6.75)"/>
<path d="M0 0 C1.32 0.33 2.64 0.66 4 1 C4.66 3.97 5.32 6.94 6 10 C7.32 6.7 8.64 3.4 10 0 C10.99 0 11.98 0 13 0 C13.99 2.97 14.98 5.94 16 9 C16.33 9 16.66 9 17 9 C17.66 6.03 18.32 3.06 19 0 C19.99 0 20.98 0 22 0 C20.98408579 5.46864457 19.92908943 10.76390013 18 16 C17.01 16 16.02 16 15 16 C13.68 12.7 12.36 9.4 11 6 C9.68 9.3 8.36 12.6 7 16 C6.01 16 5.02 16 4 16 C2.68 10.72 1.36 5.44 0 0 Z " fill="#FFFFFF" transform="translate(58,13)"/>
<path d="M0 0 C3 1 3 1 5.4375 4 C8.00267757 7.00313472 8.40527651 7.40087942 12 8 C12.474375 8.495 12.94875 8.99 13.4375 9.5 C15.48513623 11.46573078 17.23747349 11.62668561 20 12 C17.40819338 14.97295465 15.67279621 16.78470521 11.875 18 C9 18 9 18 7.125 16.5625 C6.568125 15.7890625 6.568125 15.7890625 6 15 C8.31 14.34 10.62 13.68 13 13 C12.195625 13.020625 11.39125 13.04125 10.5625 13.0625 C8 13 8 13 7 12 C5.00041636 11.95919217 2.99954746 11.95745644 1 12 C-1.09440189 8.59659693 -1.25797575 5.95562822 -1 2 C-0.67 1.34 -0.34 0.68 0 0 Z " fill="#2C9FCF" transform="translate(8,10)"/>
<path d="M0 0 C0.80566406 0.07863281 1.61132812 0.15726563 2.44140625 0.23828125 C3.42947266 0.46064453 3.42947266 0.46064453 4.4375 0.6875 C5.93906874 3.69063748 5.53031204 6.47817522 5.5 9.8125 C5.49097656 11.09382813 5.48195313 12.37515625 5.47265625 13.6953125 C5.46105469 14.68273438 5.44945313 15.67015625 5.4375 16.6875 C4.1175 16.6875 2.7975 16.6875 1.4375 16.6875 C0.24125 16.72875 -0.955 16.77 -2.1875 16.8125 C-5.5625 16.6875 -5.5625 16.6875 -7.5625 14.6875 C-7.6875 11.5625 -7.6875 11.5625 -7.5625 8.6875 C-0.9375 5.8125 -0.9375 5.8125 2.4375 4.6875 C2.4375 4.0275 2.4375 3.3675 2.4375 2.6875 C-2.0175 3.1825 -2.0175 3.1825 -6.5625 3.6875 C-6.5625 2.6975 -6.5625 1.7075 -6.5625 0.6875 C-4.07849398 -0.55450301 -2.74042364 -0.29471651 0 0 Z M-4.5625 9.6875 C-4.8925 10.6775 -5.2225 11.6675 -5.5625 12.6875 C-4.9025 13.3475 -4.2425 14.0075 -3.5625 14.6875 C0.26314665 14.49992938 0.26314665 14.49992938 3.4375 12.6875 C3.47813832 11.02132885 3.480221 9.35361905 3.4375 7.6875 C0.66776468 7.6875 -1.98185039 8.81192245 -4.5625 9.6875 Z " fill="#FFFFFF" transform="translate(109.5625,12.3125)"/>
<path d="M0 0 C0.80566406 0.07863281 1.61132812 0.15726563 2.44140625 0.23828125 C3.42947266 0.46064453 3.42947266 0.46064453 4.4375 0.6875 C5.93906874 3.69063748 5.53031204 6.47817522 5.5 9.8125 C5.49097656 11.09382813 5.48195313 12.37515625 5.47265625 13.6953125 C5.46105469 14.68273438 5.44945313 15.67015625 5.4375 16.6875 C4.1175 16.6875 2.7975 16.6875 1.4375 16.6875 C0.24125 16.72875 -0.955 16.77 -2.1875 16.8125 C-5.5625 16.6875 -5.5625 16.6875 -7.5625 14.6875 C-7.6875 11.5625 -7.6875 11.5625 -7.5625 8.6875 C-0.9375 5.8125 -0.9375 5.8125 2.4375 4.6875 C2.4375 4.0275 2.4375 3.3675 2.4375 2.6875 C-2.0175 3.1825 -2.0175 3.1825 -6.5625 3.6875 C-6.5625 2.6975 -6.5625 1.7075 -6.5625 0.6875 C-4.07849398 -0.55450301 -2.74042364 -0.29471651 0 0 Z M-4.5625 9.6875 C-4.8925 10.6775 -5.2225 11.6675 -5.5625 12.6875 C-4.9025 13.3475 -4.2425 14.0075 -3.5625 14.6875 C0.26314665 14.49992938 0.26314665 14.49992938 3.4375 12.6875 C3.47813832 11.02132885 3.480221 9.35361905 3.4375 7.6875 C0.66776468 7.6875 -1.98185039 8.81192245 -4.5625 9.6875 Z " fill="#FFFFFF" transform="translate(91.5625,12.3125)"/>
<path d="M0 0 C0.66 0 1.32 0 2 0 C2 2.64 2 5.28 2 8 C2.53625 7.649375 3.0725 7.29875 3.625 6.9375 C6.77513726 5.69402477 8.76902047 6.13840546 12 7 C13.50156874 10.00313748 13.09281204 12.79067522 13.0625 16.125 C13.05347656 17.40632813 13.04445312 18.68765625 13.03515625 20.0078125 C13.02355469 20.99523437 13.01195312 21.98265625 13 23 C12.34 23 11.68 23 11 23 C10.93941406 22.22914062 10.87882813 21.45828125 10.81640625 20.6640625 C10.73261719 19.66117188 10.64882812 18.65828125 10.5625 17.625 C10.48128906 16.62726562 10.40007812 15.62953125 10.31640625 14.6015625 C10.15034374 12.02072387 10.15034374 12.02072387 9 10 C7.02 10.33 5.04 10.66 3 11 C2.67 14.96 2.34 18.92 2 23 C1.34 23 0.68 23 0 23 C0 15.41 0 7.82 0 0 Z " fill="#FFFFFF" transform="translate(149,6)"/>
<path d="M0 0 C0 0.99 0 1.98 0 3 C-2.97 2.67 -5.94 2.34 -9 2 C-9 3.32 -9 4.64 -9 6 C-7.88625 6.12375 -6.7725 6.2475 -5.625 6.375 C-2 7 -2 7 0 9 C0.3125 11.5 0.3125 11.5 0 14 C-3.08888522 16.05925681 -3.70935927 16.2390374 -7.1875 16.125 C-8.445625 16.08375 -9.70375 16.0425 -11 16 C-11.33 14.68 -11.66 13.36 -12 12 C-7.545 12.99 -7.545 12.99 -3 14 C-3 13.01 -3 12.02 -3 11 C-7.455 9.02 -7.455 9.02 -12 7 C-12.3259574 3.98489402 -12.43138108 2.53922634 -10.5 0.125 C-6.74124159 -1.56644129 -4.01932504 -0.73687626 0 0 Z " fill="#FFFFFF" transform="translate(132,13)"/>
<path d="M0 0 C0.66 1.32 1.32 2.64 2 4 C3.258125 3.814375 4.51625 3.62875 5.8125 3.4375 C9.45671869 2.89982839 11.65299165 3.32649582 15 5 C13 7 13 7 9.875 7.125 C8.92625 7.08375 7.9775 7.0425 7 7 C7 7.66 7 8.32 7 9 C3.37 9.33 -0.26 9.66 -4 10 C-4 7.36 -4 4.72 -4 2 C-2.68 1.34 -1.36 0.68 0 0 Z " fill="#DCE1E7" transform="translate(7,18)"/>
<path d="M0 0 C0.99 0 1.98 0 3 0 C3 1.65 3 3.3 3 5 C4.65 5 6.3 5 8 5 C8 5.66 8 6.32 8 7 C6.35 7 4.7 7 3 7 C3.33 10.63 3.66 14.26 4 18 C5.32 18 6.64 18 8 18 C8 18.99 8 19.98 8 21 C5.125 21.125 5.125 21.125 2 21 C0 19 0 19 -0.1953125 16.1796875 C-0.17210937 15.08914062 -0.14890625 13.99859375 -0.125 12.875 C-0.10695312 11.77929688 -0.08890625 10.68359375 -0.0703125 9.5546875 C-0.04710937 8.71164063 -0.02390625 7.86859375 0 7 C-0.66 7 -1.32 7 -2 7 C-2 6.34 -2 5.68 -2 5 C-1.34 5 -0.68 5 0 5 C0 3.35 0 1.7 0 0 Z " fill="#FFFFFF" transform="translate(137,8)"/>
<path d="M0 0 C0.66 0.33 1.32 0.66 2 1 C1.67 1.66 1.34 2.32 1 3 C2.32 3.33 3.64 3.66 5 4 C4.690625 4.680625 4.38125 5.36125 4.0625 6.0625 C2.86629351 9.36965912 2.40994603 12.51545878 2 16 C0.68 16.33 -0.64 16.66 -2 17 C-2.05398987 14.72942623 -2.09278742 12.45848712 -2.125 10.1875 C-2.14820313 8.92292969 -2.17140625 7.65835937 -2.1953125 6.35546875 C-2 3 -2 3 0 0 Z " fill="#ECEEF1" transform="translate(5,3)"/>
<path d="M0 0 C1.68319336 0.03383789 1.68319336 0.03383789 3.40039062 0.06835938 C6.16412536 0.12716224 8.92512554 0.20929599 11.6875 0.3125 C11.6875 0.6425 11.6875 0.9725 11.6875 1.3125 C11.07229492 1.32708252 10.45708984 1.34166504 9.82324219 1.35668945 C7.02737146 1.43130577 4.23267713 1.5279198 1.4375 1.625 C0.46941406 1.64755859 -0.49867187 1.67011719 -1.49609375 1.69335938 C-2.89794922 1.7465332 -2.89794922 1.7465332 -4.328125 1.80078125 C-5.18696289 1.82696533 -6.04580078 1.85314941 -6.93066406 1.88012695 C-9.75089289 2.39208116 -11.1120813 3.53125099 -13.3125 5.3125 C-13.9725 5.3125 -14.6325 5.3125 -15.3125 5.3125 C-15.6425 13.2325 -15.9725 21.1525 -16.3125 29.3125 C-16.6425 29.3125 -16.9725 29.3125 -17.3125 29.3125 C-17.45803599 25.41706123 -17.54665059 21.52232349 -17.625 17.625 C-17.66689453 16.52220703 -17.70878906 15.41941406 -17.75195312 14.28320312 C-17.82339224 9.55393391 -17.82952212 6.27268393 -15.5625 2.0625 C-10.48693741 -0.67049524 -5.6597235 -0.21500995 0 0 Z " fill="#010326" transform="translate(17.3125,-0.3125)"/>
<path d="M0 0 C0.66 0 1.32 0 2 0 C2.433125 0.474375 2.86625 0.94875 3.3125 1.4375 C5.44693733 3.41383086 7.16307947 3.61663236 10 4 C7.40819338 6.97295465 5.67279621 8.78470521 1.875 10 C-1 10 -1 10 -2.875 8.5625 C-3.431875 7.7890625 -3.431875 7.7890625 -4 7 C-1.69 6.34 0.62 5.68 3 5 C1.35 5 -0.3 5 -2 5 C-1.34 3.35 -0.68 1.7 0 0 Z " fill="#37A1D3" transform="translate(18,18)"/>
<path d="M0 0 C5.42857143 -0.36190476 5.42857143 -0.36190476 7.875 1.1875 C9.34781139 3.56036279 9.22223194 5.25913944 9 8 C8.46375 7.690625 7.9275 7.38125 7.375 7.0625 C4.6015043 5.82172561 1.99957163 5.4090325 -1 5 C-1 2 -1 2 0 0 Z " fill="#66D190" transform="translate(22,8)"/>
<path d="M0 0 C1.48831242 0.00667405 2.97660807 0.01863442 4.46484375 0.03515625 C5.22345703 0.03966797 5.98207031 0.04417969 6.76367188 0.04882812 C8.64326246 0.06064945 10.52281274 0.07858547 12.40234375 0.09765625 C12.40234375 0.75765625 12.40234375 1.41765625 12.40234375 2.09765625 C13.06234375 2.09765625 13.72234375 2.09765625 14.40234375 2.09765625 C14.40234375 2.75765625 14.40234375 3.41765625 14.40234375 4.09765625 C9.52734375 3.22265625 9.52734375 3.22265625 8.40234375 2.09765625 C4.4539747 1.83443165 1.79855106 2.00768252 -1.59765625 4.09765625 C-2.58765625 3.10765625 -3.57765625 2.11765625 -4.59765625 1.09765625 C-3.59765625 0.09765625 -3.59765625 0.09765625 0 0 Z " fill="#EDF3F4" transform="translate(19.59765625,6.90234375)"/>
<path d="M0 0 C4.13843596 -0.81490438 7.91973323 -0.63235128 11.5625 1.5 C12.036875 1.995 12.51125 2.49 13 3 C12.67 3.99 12.34 4.98 12 6 C12 5.34 12 4.68 12 4 C9.03 4 6.06 4 3 4 C3 3.34 3 2.68 3 2 C1.35 2.33 -0.3 2.66 -2 3 C-1.34 2.01 -0.68 1.02 0 0 Z " fill="#D7E8E8" transform="translate(18,13)"/>
<path d="M0 0 C0.66 0 1.32 0 2 0 C2.08690253 4.43737712 2.14035926 8.87453634 2.1875 13.3125 C2.21263672 14.57513672 2.23777344 15.83777344 2.26367188 17.13867188 C2.27333984 18.34716797 2.28300781 19.55566406 2.29296875 20.80078125 C2.3086792 21.91622314 2.32438965 23.03166504 2.34057617 24.1809082 C2 27 2 27 0.48168945 28.88745117 C-0.25174683 29.43816284 -0.25174683 29.43816284 -1 30 C-1.66 29.34 -2.32 28.68 -3 28 C-2.51104248 27.62383545 -2.02208496 27.2476709 -1.51831055 26.86010742 C0.594539 24.27162041 0.3433707 22.54800945 0.29296875 19.23828125 C0.28330078 18.12001953 0.27363281 17.00175781 0.26367188 15.84960938 C0.23853516 14.68236328 0.21339844 13.51511719 0.1875 12.3125 C0.17396484 11.13365234 0.16042969 9.95480469 0.14648438 8.74023438 C0.11109326 5.82636589 0.06171809 2.91341055 0 0 Z " fill="#15182B" transform="translate(34,5)"/>
<path d="M0 0 C0.66 0 1.32 0 2 0 C2 0.66 2 1.32 2 2 C2.66 2 3.32 2 4 2 C4.33 3.65 4.66 5.3 5 7 C5.99 6.67 6.98 6.34 8 6 C7.67 6.99 7.34 7.98 7 9 C3.2047869 7.50902342 1.38957269 5.24299151 -1 2 C-0.67 1.34 -0.34 0.68 0 0 Z " fill="#34BB86" transform="translate(11,9)"/>
<path d="M0 0 C0.66 0 1.32 0 2 0 C2.433125 0.474375 2.86625 0.94875 3.3125 1.4375 C5.44693733 3.41383086 7.16307947 3.61663236 10 4 C9.01 4.99 8.02 5.98 7 7 C7 6.34 7 5.68 7 5 C4.03 5 1.06 5 -2 5 C-1.34 3.35 -0.68 1.7 0 0 Z " fill="#5AB7D9" transform="translate(18,18)"/>
<path d="M0 0 C3.68754757 0.49831724 5.60490662 1.10067643 8 4 C7.67 4.66 7.34 5.32 7 6 C5.83054208 5.19152271 4.66449539 4.37810888 3.5 3.5625 C2.8503125 3.11003906 2.200625 2.65757812 1.53125 2.19140625 C1.0259375 1.79824219 0.520625 1.40507812 0 1 C0 0.67 0 0.34 0 0 Z " fill="#040A10" transform="translate(29,0)"/>
<path d="M0 0 C2.04119788 1.61594832 4.04072937 3.2856382 6 5 C6 5.66 6 6.32 6 7 C4.68 7 3.36 7 2 7 C1.34 4.69 0.68 2.38 0 0 Z " fill="#178ECB" transform="translate(8,15)"/>
</svg>
